<?xml version="1.0" encoding="utf-8"?>
<!-- Generator: Adobe Illustrator 16.0.0, SVG Export Plug-In . SVG Version: 6.00 Build 0)  -->
<!DOCTYPE svg PUBLIC "-//W3C//DTD SVG 1.1//EN" "http://www.w3.org/Graphics/SVG/1.1/DTD/svg11.dtd">
<svg version="1.1" id="Layer_1" xmlns="http://www.w3.org/2000/svg" xmlns:xlink="http://www.w3.org/1999/xlink" x="0px" y="0px" viewBox="0 0 148.041 148.042" enable-background="new 0 0 148.041 148.042"
	 xml:space="preserve">
<circle fill="#DB4545" cx="74.021" cy="74.021" r="74.021"/>
<path fill="#FFFFFF" d="M137.493,46.978c-1.44-4.743-4.641-9.927-8.33-13.274c-6.992-6.346-16.455-8.851-25.805-7.8
	c-11.255,1.266-21.529,7.396-29.338,14.262c-7.81-6.866-18.083-12.996-29.338-14.262c-9.35-1.051-18.812,1.454-25.805,7.8
	c-3.689,3.347-6.89,8.531-8.331,13.274c-5.85,19.251,0.132,40.78,12.44,56.22c13.558,17.006,32.821,27.51,51.033,38.713
	c18.211-11.204,37.476-21.707,51.033-38.713C137.362,87.758,143.343,66.229,137.493,46.978z"/>
<rect x="22.94" y="38.973" fill="none" width="74.571" height="70.096"/>
<text transform="matrix(1 0 0 1 22.9399 88.1816)" fill="#DB4545" font-family="'MinionPro-BoldIt'" font-size="70">C</text>
<rect x="64.598" y="66.492" fill="none" width="67.828" height="65.042"/>
<text transform="matrix(1 0 0 1 64.5977 115.7007)" fill="#DB4545" font-family="'MinionPro-BoldIt'" font-size="70">G</text>
</svg>
